{
  "accessors": [
    {
      "bufferView": 3,
      "componentType": 5126,
      "count": 2590,
      "max": [
        0.04828764498233795,
        0.024890076369047165,
        0.18979299068450928
      ],
      "min": [
        -0.057047054171562195,
        0.008583921939134598,
        -0.19053292274475098
      ],
      "type": "VEC3"
    },
    {
      "bufferView": 3,
      "byteOffset": 31080,
      "componentType": 5126,
      "count": 2590,
      "max": [
        1.0,
        1.0,
        1.0
      ],
      "min": [
        -1.0,
        -1.0,
        -1.0
      ],
      "type": "VEC3"
    },
    {
      "bufferView": 4,
      "componentType": 5126,
      "count": 2590,
      "max": [
        1.0,
        1.0,
        1.0,
        1.0
      ],
      "min": [
        -1.0,
        -1.0,
        -1.0,
        -1.0
      ],
      "type": "VEC4"
    },
    {
      "bufferView": 2,
      "componentType": 5126,
      "count": 2590,
      "max": [
        0.9983243346214294,
        0.9982655644416809
      ],
      "min": [
        0.0015157274901866913,
        0.0015111987013369799
      ],
      "type": "VEC2"
    },
    {
      "bufferView": 1,
      "componentType": 5125,
      "count": 6270,
      "type": "SCALAR"
    },
    {
      "bufferView": 3,
      "byteOffset": 62160,
      "componentType": 5126,
      "count": 552,
      "max": [
        0.014216486364603043,
        0.013922188431024551,
        0.012227427214384079
      ],
      "min": [
        -0.014992350712418556,
        -0.013781932182610035,
        -0.012571314349770546
      ],
      "type": "VEC3"
    },
    {
      "bufferView": 3,
      "byteOffset": 68784,
      "componentType": 5126,
      "count": 552,
      "max": [
        1.0,
        1.0,
        1.0
      ],
      "min": [
        -1.0,
        -1.0,
        -1.0
      ],
      "type": "VEC3"
    },
    {
      "bufferView": 4,
      "byteOffset": 41440,
      "componentType": 5126,
      "count": 552,
      "max": [
        0.9824416637420654,
        1.0,
        0.9982213377952576,
        1.0
      ],
      "min": [
        -0.9829069972038269,
        -0.9953938126564026,
        -0.990598201751709,
        -1.0
      ],
      "type": "VEC4"
    },
    {
      "bufferView": 2,
      "byteOffset": 20720,
      "componentType": 5126,
      "count": 552,
      "max": [
        0.9598298072814941,
        0.43026280403137207
      ],
      "min": [
        0.1172846332192421,
        0.0015525370836257935
      ],
      "type": "VEC2"
    },
    {
      "bufferView": 1,
      "byteOffset": 25080,
      "componentType": 5125,
      "count": 2580,
      "type": "SCALAR"
    },
    {
      "bufferView": 3,
      "byteOffset": 75408,
      "componentType": 5126,
      "count": 771,
      "max": [
        0.04300200939178467,
        0.023324595764279366,
        -0.10240620374679565
      ],
      "min": [
        -0.03294084593653679,
        0.010610307566821575,
        -0.18913698196411133
      ],
      "type": "VEC3"
    },
    {
      "bufferView": 3,
      "byteOffset": 84660,
      "componentType": 5126,
      "count": 771,
      "max": [
        0.9904633164405823,
        1.0,
        0.9270476698875427
      ],
      "min": [
        -0.9999654293060303,
        -1.0,
        -0.9924185872077942
      ],
      "type": "VEC3"
    },
    {
      "bufferView": 4,
      "byteOffset": 50272,
      "componentType": 5126,
      "count": 771,
      "max": [
        0.9963266849517822,
        0.9987676739692688,
        1.0,
        1.0
      ],
      "min": [
        -0.9963345527648926,
        -0.9988818168640137,
        -1.0,
        -1.0
      ],
      "type": "VEC4"
    },
    {
      "bufferView": 2,
      "byteOffset": 25136,
      "componentType": 5126,
      "count": 771,
      "max": [
        0.921969473361969,
        0.40105459094047546
      ],
      "min": [
        0.0015146819641813636,
        0.0015121119795367122
      ],
      "type": "VEC2"
    },
    {
      "bufferView": 1,
      "byteOffset": 35400,
      "componentType": 5125,
      "count": 1644,
      "type": "SCALAR"
    },
    {
      "bufferView": 5,
      "componentType": 5126,
      "count": 2,
      "max": [
        16.04022979736328,
        0.0,
        0.0,
        0.0,
        2.6194099494123173e-16,
        1.0,
        16.782869338989258,
        0.0,
        0.0,
        0.0,
        1.0,
        0.0,
        0.0,
        0.0,
        0.0,
        1.0
      ],
      "min": [
        1.0,
        -4.937179088592529,
        -2.1581092823907966e-07,
        0.0,
        0.0,
        -7.336025191762019e-07,
        0.0,
        0.0,
        -4.937179088592529,
        -16.04022979736328,
        -7.011407774371037e-07,
        0.0,
        -0.7204619646072388,
        -1.5872102975845337,
        -6.937916907645558e-08,
        1.0
      ],
      "type": "MAT4"
    },
    {
      "bufferView": 0,
      "componentType": 5123,
      "count": 771,
      "type": "VEC4"
    },
    {
      "bufferView": 4,
      "byteOffset": 62608,
      "componentType": 5126,
      "count": 771,
      "max": [
        1.0,
        0.0,
        0.0,
        0.0
      ],
      "min": [
        1.0,
        0.0,
        0.0,
        0.0
      ],
      "type": "VEC4"
    },
    {
      "bufferView": 6,
      "componentType": 5126,
      "count": 160,
      "max": [
        6.666666507720947
      ],
      "min": [
        0.0416666679084301
      ],
      "type": "SCALAR"
    },
    {
      "bufferView": 8,
      "componentType": 5126,
      "count": 160,
      "max": [
        0.7070857882499695,
        0.7070919275283813,
        0.7068648338317871,
        0.7070019841194153
      ],
      "min": [
        -0.6559920310974121,
        -0.7061694860458374,
        -0.2341732531785965,
        -0.0045847357250750065
      ],
      "type": "VEC4"
    },
    {
      "bufferView": 6,
      "byteOffset": 640,
      "componentType": 5126,
      "count": 160,
      "max": [
        6.666666507720947
      ],
      "min": [
        0.0416666679084301
      ],
      "type": "SCALAR"
    },
    {
      "bufferView": 7,
      "componentType": 5126,
      "count": 160,
      "max": [
        0.0,
        0.0,
        0.0
      ],
      "min": [
        -0.6596857905387878,
        -0.06963004171848297,
        -3.0436257958399437e-09
      ],
      "type": "VEC3"
    }
  ],
  "animations": [
    {
      "channels": [
        {
          "sampler": 0,
          "target": {
            "node": 5,
            "path": "rotation"
          }
        },
        {
          "sampler": 1,
          "target": {
            "node": 12,
            "path": "translation"
          }
        }
      ],
      "name": "Animation",
      "samplers": [
        {
          "input": 18,
          "interpolation": "LINEAR",
          "output": 19
        },
        {
          "input": 20,
          "interpolation": "LINEAR",
          "output": 21
        }
      ]
    }
  ],
  "asset": {
    "extras": {
      "author": "harithsami01 (https://sketchfab.com/harithsami01)",
      "license": "CC-BY-4.0 (http://creativecommons.org/licenses/by/4.0/)",
      "source": "https://sketchfab.com/3d-models/wrench-craftsman-6in-cfc49bcb02134ecea34f4fda58f00590",
      "title": "Wrench (Craftsman 6IN)"
    },
    "generator": "Sketchfab-11.72.0",
    "version": "2.0"
  },
  "bufferViews": [
    {
      "buffer": 0,
      "byteLength": 6168,
      "byteStride": 8,
      "name": "shortBufferViews",
      "target": 34962
    },
    {
      "buffer": 0,
      "byteLength": 41976,
      "byteOffset": 6168,
      "name": "floatBufferViews",
      "target": 34963
    },
    {
      "buffer": 0,
      "byteLength": 31304,
      "byteOffset": 48144,
      "byteStride": 8,
      "name": "floatBufferViews",
      "target": 34962
    },
    {
      "buffer": 0,
      "byteLength": 93912,
      "byteOffset": 79448,
      "byteStride": 12,
      "name": "floatBufferViews",
      "target": 34962
    },
    {
      "buffer": 0,
      "byteLength": 74944,
      "byteOffset": 173360,
      "byteStride": 16,
      "name": "floatBufferViews",
      "target": 34962
    },
    {
      "buffer": 0,
      "byteLength": 128,
      "byteOffset": 248304,
      "name": "floatBufferViews"
    },
    {
      "buffer": 0,
      "byteLength": 1280,
      "byteOffset": 248432,
      "name": "floatBufferViews"
    },
    {
      "buffer": 0,
      "byteLength": 1920,
      "byteOffset": 249712,
      "byteStride": 12,
      "name": "floatBufferViews"
    },
    {
      "buffer": 0,
      "byteLength": 2560,
      "byteOffset": 251632,
      "byteStride": 16,
      "name": "floatBufferViews"
    }
  ],
  "buffers": [
    {
      "byteLength": 254192,
      "uri": "scene.bin"
    }
  ],
  "images": [
    {
      "uri": "textures/Material_baseColor.jpeg"
    },
    {
      "uri": "textures/Material_metallicRoughness.png"
    },
    {
      "uri": "textures/Material_normal.png"
    }
  ],
  "materials": [
    {
      "doubleSided": true,
      "name": "Material",
      "normalTexture": {
        "index": 2
      },
      "occlusionTexture": {
        "index": 1
      },
      "pbrMetallicRoughness": {
        "baseColorTexture": {
          "index": 0
        },
        "metallicRoughnessTexture": {
          "index": 1
        }
      }
    }
  ],
  "meshes": [
    {
      "name": "Object_0",
      "primitives": [
        {
          "attributes": {
            "NORMAL": 1,
            "POSITION": 0,
            "TANGENT": 2,
            "TEXCOORD_0": 3
          },
          "indices": 4,
          "material": 0,
          "mode": 4
        }
      ]
    },
    {
      "name": "mesh_1",
      "primitives": [
        {
          "attributes": {
            "NORMAL": 6,
            "POSITION": 5,
            "TANGENT": 7,
            "TEXCOORD_0": 8
          },
          "indices": 9,
          "material": 0,
          "mode": 4
        }
      ]
    },
    {
      "name": "Object_2",
      "primitives": [
        {
          "attributes": {
            "JOINTS_0": 16,
            "NORMAL": 11,
            "POSITION": 10,
            "TANGENT": 12,
            "TEXCOORD_0": 13,
            "WEIGHTS_0": 17
          },
          "indices": 14,
          "material": 0,
          "mode": 4
        }
      ]
    }
  ],
  "nodes": [
    {
      "children": [
        1
      ],
      "matrix": [
        1.0,
        0.0,
        0.0,
        0.0,
        0.0,
        0.9854482412338257,
        -0.16997592151164986,
        0.0,
        0.0,
        0.16997592151164986,
        0.9854482412338257,
        0.0,
        0.000709636602550745,
        0.011236478574573999,
        -0.020633319392800328,
        1.0
      ],
      "name": "Sketchfab_model"
    },
    {
      "children": [
        2
      ],
      "name": "root"
    },
    {
      "children": [
        3,
        5,
        7
      ],
      "matrix": [
        1.0,
        0.0,
        0.0,
        0.0,
        0.0,
        2.220446049250313e-16,
        1.0,
        0.0,
        0.0,
        -1.0,
        2.220446049250313e-16,
        0.0,
        0.0,
        0.0,
        0.0,
        1.0
      ],
      "name": "GLTF_SceneRootNode"
    },
    {
      "children": [
        4
      ],
      "name": "Plane.001_0"
    },
    {
      "mesh": 0,
      "name": "Object_4"
    },
    {
      "children": [
        6
      ],
      "name": "Cylinder.004_1",
      "rotation": [
        0.6995044946670532,
        -0.608009397983551,
        0.10340911149978638,
        0.3610049784183502
      ],
      "translation": [
        -0.007493325974792242,
        0.016947168856859207,
        -0.09909242391586304
      ]
    },
    {
      "mesh": 1,
      "name": "mesh_1"
    },
    {
      "children": [
        8
      ],
      "matrix": [
        0.056947953189517245,
        6.208411780375822e-10,
        -0.01752856596311424,
        0.0,
        -0.01752856596311424,
        -9.33855778176076e-11,
        -0.05694795318951726,
        0.0,
        -6.208411780375822e-10,
        0.05958456173539162,
        9.338556458717713e-11,
        0.0,
        0.013207314535975456,
        0.0,
        -0.10301704704761505,
        1.0
      ],
      "name": "Armature_4"
    },
    {
      "children": [
        9,
        11,
        10
      ],
      "name": "GLTF_created_0"
    },
    {
      "children": [
        12
      ],
      "name": "GLTF_created_0_rootJoint"
    },
    {
      "name": "Plane.005_3"
    },
    {
      "mesh": 2,
      "name": "Object_11",
      "skin": 0
    },
    {
      "name": "Bone_2",
      "translation": [
        -0.008246072567999363,
        -0.0008703755447641015,
        -3.804532383577808e-11
      ]
    }
  ],
  "samplers": [
    {
      "magFilter": 9729,
      "minFilter": 9987,
      "wrapS": 10497,
      "wrapT": 10497
    }
  ],
  "scene": 0,
  "scenes": [
    {
      "name": "Sketchfab_Scene",
      "nodes": [
        0
      ]
    }
  ],
  "skins": [
    {
      "inverseBindMatrices": 15,
      "joints": [
        9,
        12
      ],
      "skeleton": 9
    }
  ],
  "textures": [
    {
      "sampler": 0,
      "source": 0
    },
    {
      "sampler": 0,
      "source": 1
    },
    {
      "sampler": 0,
      "source": 2
    }
  ]
}
