{
  "accessors": [
    {
      "bufferView": 2,
      "componentType": 5126,
      "count": 1025,
      "max": [
        12.363359451293945,
        2.9808096885681152,
        28.918346405029297
      ],
      "min": [
        -12.363365173339844,
        -2.9807991981506348,
        -28.918346405029297
      ],
      "type": "VEC3"
    },
    {
      "bufferView": 2,
      "byteOffset": 12300,
      "componentType": 5126,
      "count": 1025,
      "max": [
        0.9975985288619995,
        1.0,
        0.9980600476264954
      ],
      "min": [
        -0.9975985288619995,
        -1.0,
        -1.0
      ],
      "type": "VEC3"
    },
    {
      "bufferView": 1,
      "componentType": 5126,
      "count": 1025,
      "max": [
        0.9623182415962219,
        1.115639090538025
      ],
      "min": [
        -2.1468329429626465,
        0.0
      ],
      "type": "VEC2"
    },
    {
      "bufferView": 0,
      "componentType": 5125,
      "count": 4242,
      "type": "SCALAR"
    }
  ],
  "asset": {
    "extras": {
      "author": "HUAnie (https://sketchfab.com/vviemsonictw)",
      "license": "CC-BY-4.0 (http://creativecommons.org/licenses/by/4.0/)",
      "source": "https://sketchfab.com/3d-models/litter-scoop-411d1075691141fbb52f644602c6d5d3",
      "title": "Litter scoop/貓砂鏟"
    },
    "generator": "Sketchfab-11.53.2",
    "version": "2.0"
  },
  "bufferViews": [
    {
      "buffer": 0,
      "byteLength": 16968,
      "name": "floatBufferViews",
      "target": 34963
    },
    {
      "buffer": 0,
      "byteLength": 8200,
      "byteOffset": 16968,
      "byteStride": 8,
      "name": "floatBufferViews",
      "target": 34962
    },
    {
      "buffer": 0,
      "byteLength": 24600,
      "byteOffset": 25168,
      "byteStride": 12,
      "name": "floatBufferViews",
      "target": 34962
    }
  ],
  "buffers": [
    {
      "byteLength": 49768,
      "uri": "scene.bin"
    }
  ],
  "images": [
    {
      "uri": "textures/Scene_-_Root_baseColor.jpeg"
    }
  ],
  "materials": [
    {
      "doubleSided": true,
      "name": "Scene_-_Root",
      "pbrMetallicRoughness": {
        "baseColorTexture": {
          "index": 0
        },
        "metallicFactor": 0.0,
        "roughnessFactor": 0.6
      }
    }
  ],
  "meshes": [
    {
      "name": "Box001__0",
      "primitives": [
        {
          "attributes": {
            "NORMAL": 1,
            "POSITION": 0,
            "TEXCOORD_0": 2
          },
          "indices": 3,
          "material": 0,
          "mode": 4
        }
      ]
    }
  ],
  "nodes": [
    {
      "children": [
        1
      ],
      "matrix": [
        -0.7989233732223511,
        0.36233919858932506,
        -0.4800330996513366,
        0.0,
        0.24668437242507935,
        -0.530503988265991,
        -0.8109946846961976,
        0.0,
        -0.5485146045684814,
        -0.7663392424583436,
        0.33444860577583296,
        0.0,
        -1.5703240933362395e-05,
        0.0001501759106758982,
        -4.2780509829753976e-05,
        1.0
      ],
      "name": "Sketchfab_model"
    },
    {
      "children": [
        2
      ],
      "matrix": [
        1.0,
        0.0,
        0.0,
        0.0,
        0.0,
        0.0,
        1.0,
        0.0,
        0.0,
        -1.0,
        0.0,
        0.0,
        0.0,
        0.0,
        0.0,
        1.0
      ],
      "name": "04-LitterShovel.FBX"
    },
    {
      "children": [
        3
      ],
      "name": "RootNode"
    },
    {
      "children": [
        4
      ],
      "matrix": [
        0.9999999999999923,
        8.74227765734752e-08,
        8.742277657347518e-08,
        0.0,
        8.742276893073331e-08,
        8.742277646245356e-08,
        -0.9999999999999925,
        0.0,
        -8.742278421621638e-08,
        0.9999999999999925,
        8.742276880191469e-08,
        0.0,
        0.0,
        0.0,
        0.0,
        1.0
      ],
      "name": "Box001"
    },
    {
      "mesh": 0,
      "name": "Box001__0"
    }
  ],
  "samplers": [
    {
      "magFilter": 9729,
      "minFilter": 9987,
      "wrapS": 10497,
      "wrapT": 10497
    }
  ],
  "scene": 0,
  "scenes": [
    {
      "name": "Sketchfab_Scene",
      "nodes": [
        0
      ]
    }
  ],
  "textures": [
    {
      "sampler": 0,
      "source": 0
    }
  ]
}
